<svg width="297" height="89" viewBox="0 0 297 89" fill="none" xmlns="http://www.w3.org/2000/svg">
<path d="M140.306 85.5836V74.6683H142.621C143.52 74.6683 144.2 74.9136 144.66 75.4041C145.13 75.8947 145.365 76.5897 145.365 77.4891V82.5942C145.365 83.6162 145.115 84.3725 144.614 84.8631C144.123 85.3434 143.413 85.5836 142.483 85.5836H140.306ZM141.87 76.14V84.1119H142.59C143.03 84.1119 143.341 84.0046 143.525 83.7899C143.709 83.5651 143.801 83.2176 143.801 82.7475V77.4891C143.801 77.0598 143.714 76.7277 143.541 76.4926C143.367 76.2575 143.05 76.14 142.59 76.14H141.87ZM146.527 85.5836V74.6683H151.187V76.14H148.09V79.3441H150.789V80.8158H148.09V84.0199H151.187V85.5836H146.527ZM157.199 74.6683L154.96 85.5836H153.581L151.358 74.6683H153.013L154.255 82.2876H154.286L155.543 74.6683H157.199Z" fill="white"/>
<path fill-rule="evenodd" clip-rule="evenodd" d="M294.819 2.40692H293.936V6.00897L296.868 6.00897V5.10862H294.819V2.40692ZM296.868 6.90954H293.054V6.00897L293.054 2.40692H1.86786V27.6228H4.51501V30.3245H1.86786V32.1255H3.63275V30.3246H4.51513V32.1257H4.51501V34.8272H1.86786V61.7422L19.4798 79.4069H137.48V72.1599H161.256V79.4069H270.838L270.302 78.86L296.868 51.7467V6.90954ZM296.868 56.841L274.758 79.4069H279.256L296.868 61.7422V56.841ZM219.816 77.154H220.699V78.9552H219.816V77.154ZM224.228 74.4522H221.581V78.955H224.228V74.4522ZM216.287 74.4522H218.934V78.955H216.287V74.4522Z" fill="#D9C142"/>
<path fill-rule="evenodd" clip-rule="evenodd" d="M292.073 0.406921H291.194V4.00897L294.711 4.00897V4.90954H290.314L290.314 4.00918V0.406921H0.105164V25.6228H2.74343V28.3245H0.105164V30.1255H1.86395V28.3246H2.74408V30.1257H2.74343V32.8272H0.105164V59.7422L17.7171 77.4069H135.717V70.1599H159.493V77.4069H268.173L267.639 76.86L294.618 49.2321L295.105 49.7311V0.406921H294.711V3.10862H292.073V0.406921ZM295.105 53.8274L272.079 77.4069H277.493L295.105 59.7422V53.8274ZM217.322 75.154H218.202V76.9552H217.322V75.154ZM221.719 72.4522H219.081V76.955H221.719V72.4522ZM213.804 72.4522H216.443V76.955H213.804V72.4522Z" fill="#D4204B"/>
</svg>
