<svg id="e9EkRTc2VzS1"  pathLength="1" xmlns="http://www.w3.org/2000/svg" xmlns:xlink="http://www.w3.org/1999/xlink" viewBox="0 0 135 145" shape-rendering="geometricPrecision" text-rendering="geometricPrecision"><path  pathLength="1" id="e9EkRTc2VzS2" d="M417.447,210.111C410.435,210.111,404.73,215.816,404.73,222.828C404.73,229.841,410.434,235.545,417.447,235.545C424.459,235.545,430.164,229.84,430.164,222.828C430.164,215.816,424.459,210.111,417.447,210.111Z" transform="matrix(0.275078 0 0 0.276485 -4.989403 0.054412)" fill="rgb(239,111,108)" stroke="rgb(231,187,65)" stroke-width="4" stroke-linecap="round" stroke-linejoin="round"/><path id="e9EkRTc2VzS3"  pathLength="1" d="M488.104,306.189C480.873,289.294,475.198,284.999,471.557,283.24C469.16,282.08,465.984,280.95,462.275,280.025C478.407,273.294,484.372,259.378,484.469,259.14C484.877,258.144,485.087,257.077,485.087,255.999C485.087,247.477,476.727,223.315,461.61,201.915C447.036,181.284,421.109,155.586,380.349,150.328C380.265,150.317,380.183,150.317,380.099,150.308C372.966,131.511,364.816,121.998,359.921,117.621L359.921,103.234C359.921,98.654,356.208,94.94,351.627,94.94C347.047,94.94,343.333,98.653,343.333,103.234L343.333,119.486C338.277,128.426,334.56,136.857,331.86,144.528C329.154,128.813,323.954,106.779,314.073,84.544C289.492,29.236,247.868,0,193.701,0C128.485,0,88.005,25.75,65.532,47.352C41.011,70.919,32.12,94.503,31.754,95.495C30.963,97.637,31.094,100.012,32.109,102.057C33.124,104.103,34.942,105.64,37.126,106.304C37.261,106.345,50.765,110.501,63.931,118.504C74.953,125.204,88.092,136.079,88.092,149.839C88.092,162.807,77.173,182.331,64.53,204.937C43.497,242.547,17.319,289.355,17.319,344.465C17.319,387.542,33.372,429.462,62.52,462.505C89.861,493.498,125.671,512,158.314,512L352.94,512C357.52,512,361.234,508.287,361.234,503.706C361.234,464.978,338.671,451.179,317.554,451.179L288.804,451.179C296.189,437.812,303.953,418.195,307.082,397.312C336.441,396.609,386.577,376.206,405.898,356.884C423.215,339.568,431.355,339.573,437.57,342.159C455.605,349.661,481.963,340.347,489.411,335.377C492.908,333.045,494.68,330.165,494.68,326.819C494.679,322.445,489.493,309.434,488.104,306.189ZM443.938,326.843C424.36,318.699,407.792,331.531,394.168,345.156C378.171,361.153,333.909,379.294,308.495,380.666C308.694,368.281,306.863,355.912,301.992,344.555C289.254,314.855,259.505,299.119,213.571,297.783C208.993,297.672,205.173,301.254,205.04,305.832C204.907,310.41,208.511,314.23,213.089,314.363C251.998,315.493,276.779,327.851,286.747,351.092C301.863,386.336,280.393,435.715,269.317,451.179L255.626,451.179C251.046,451.179,247.332,454.892,247.332,459.473C247.332,464.053,251.045,467.767,255.626,467.767L317.553,467.767C326.699,467.767,341.448,471.583,344.197,495.413L158.314,495.413C130.359,495.413,99.2,479.01,74.962,451.534C48.488,421.523,33.909,383.5,33.909,344.467C33.909,293.681,58.916,248.965,79.01,213.036C93.354,187.39,104.682,167.132,104.682,149.841C104.682,118.757,68.299,100.563,50.905,93.642C55.193,85.535,63.599,72.071,77.606,58.759C107.044,30.777,146.105,16.589,193.699,16.589C241.356,16.589,276.697,41.589,298.742,90.895C312.692,122.096,316.781,153.795,317.81,164.331C297.206,173.595,263.813,194.892,244.251,217.317C206.105,205.757,164.287,214.774,133.241,242.458C88.554,282.308,77.674,348.53,104.139,419.606C105.382,422.945,108.548,425.008,111.913,425.008C112.874,425.008,113.852,424.84,114.806,424.485C119.099,422.886,121.283,418.111,119.685,413.818C95.697,349.396,104.893,289.964,144.282,254.838C175.43,227.062,219.151,221.122,255.669,239.706C259.752,241.784,264.745,240.158,266.822,236.077C268.9,231.994,267.274,227,263.193,224.924C262.41,224.526,261.619,224.158,260.831,223.778C280.666,203.169,309.848,186.191,324.809,179.319C324.63,184.001,324.907,186.771,324.947,187.132C325.418,191.374,329.009,194.51,333.18,194.51C333.485,194.51,333.795,194.493,334.106,194.459C338.659,193.954,341.939,189.853,341.433,185.3C341.409,185.074,339.351,164.534,353.683,135.368C358.78,142.174,366.009,155.265,371.189,178.78C372.174,183.254,376.601,186.082,381.073,185.094C385.546,184.109,388.374,179.683,387.388,175.21C386.839,172.722,386.263,170.353,385.672,168.056C416.061,174.49,436.086,194.652,447.788,211.098C461.173,229.907,467.11,248.331,468.281,254.391C467.057,256.388,464.421,259.954,459.882,262.756C450.137,268.772,436.103,268.342,419.29,261.509C415.048,259.785,410.209,261.826,408.484,266.069C406.759,270.312,408.801,275.15,413.046,276.875C416.668,278.347,420.121,279.542,423.415,280.499C412.653,286.703,390.092,294.648,345.614,293.937C345.569,293.937,345.524,293.936,345.479,293.936C340.961,293.936,337.26,297.563,337.189,302.098C337.116,306.678,340.77,310.449,345.35,310.522C347.314,310.553,349.23,310.568,351.12,310.568C388.49,310.568,411.633,304.6,425.809,297.997C439.961,291.801,457.859,295.038,464.24,298.12C467.905,300.423,474.168,314.919,476.915,323.287C469.56,326.449,453.517,330.825,443.938,326.843Z" transform="matrix(0.275078 0 0 0.276485 -3.230604 2.485272)" fill="rgb(239,111,108)" stroke="rgb(231,187,65)" stroke-width="4" stroke-linecap="round" stroke-linejoin="round"/></svg>